<?xml version="1.0" standalone="no"?>
<svg viewBox="0 0 200 200" xmlns="http://www.w3.org/2000/svg">
  <path fill="#D46A6A" d="M30.3,-50.9C41.3,-46.2,53.6,-42.1,64,-33.7C74.4,-25.4,83,-12.7,82.9,-0.1C82.8,12.6,74.1,25.1,66.6,38.6C59.1,52,52.8,66.2,41.9,75.1C31,84,15.5,87.5,1.5,84.9C-12.5,82.3,-24.9,73.5,-38.6,66.3C-52.4,59,-67.3,53.3,-70.9,42.5C-74.4,31.7,-66.4,15.8,-62.9,2C-59.4,-11.8,-60.4,-23.6,-58.2,-36.7C-56,-49.8,-50.7,-64.2,-40.5,-69.4C-30.2,-74.5,-15.1,-70.5,-2.7,-65.8C9.7,-61.1,19.4,-55.7,30.3,-50.9Z" transform="translate(100 100)" />
</svg>
